<svg width="22" height="20" viewBox="0 0 22 20" fill="none" xmlns="http://www.w3.org/2000/svg">
<path d="M11 19.5813C10.69 19.5813 10.39 19.5413 10.14 19.4513C6.32 18.1413 0.25 13.4913 0.25 6.6213C0.25 3.12131 3.08 0.281305 6.56 0.281305C8.25 0.281305 9.83 0.941305 11 2.1213C11.5808 1.53517 12.2726 1.07058 13.0349 0.75467C13.7972 0.438756 14.6148 0.277837 15.44 0.281305C18.92 0.281305 21.75 3.13131 21.75 6.6213C21.75 13.5013 15.68 18.1413 11.86 19.4513C11.61 19.5413 11.31 19.5813 11 19.5813ZM6.56 1.7813C3.91 1.7813 1.75 3.9513 1.75 6.6213C1.75 13.4513 8.32 17.2513 10.63 18.0413C10.81 18.1013 11.2 18.1013 11.38 18.0413C13.68 17.2513 20.26 13.4613 20.26 6.6213C20.26 3.9513 18.1 1.7813 15.45 1.7813C13.93 1.7813 12.52 2.4913 11.61 3.7213C11.33 4.1013 10.69 4.1013 10.41 3.7213C9.96564 3.11838 9.38554 2.62857 8.71668 2.29154C8.04781 1.9545 7.30898 1.7797 6.56 1.7813Z" fill="#1F2937"/>
</svg>
